<svg width="60" height="60" viewBox="0 0 60 60" xmlns="http://www.w3.org/2000/svg">
<path d="M24.2925 8.75254L43.725 28.6875C44.0663 29.0377 44.2573 29.5073 44.2573 29.9963C44.2573 30.4853 44.0663 30.9549 43.725 31.305L24.2925 51.2475C24.1335 51.4108 23.9434 51.5406 23.7335 51.6292C23.5235 51.7178 23.2979 51.7635 23.07 51.7635C22.8421 51.7635 22.6165 51.7178 22.4065 51.6292C22.1966 51.5406 22.0065 51.4108 21.8475 51.2475C21.5204 50.9127 21.3373 50.4631 21.3373 49.995C21.3373 49.5269 21.5204 49.0774 21.8475 48.7425L40.1213 29.9963L21.8475 11.2538C21.5215 10.9191 21.3391 10.4704 21.3391 10.0032C21.3391 9.53596 21.5215 9.08723 21.8475 8.75254C22.0065 8.58925 22.1966 8.45946 22.4065 8.37085C22.6165 8.28223 22.8421 8.23657 23.07 8.23657C23.2979 8.23657 23.5235 8.28223 23.7335 8.37085C23.9434 8.45946 24.1335 8.58925 24.2925 8.75254Z"/>
</svg>
